<svg width="209" height="47" viewBox="0 0 209 47" fill="none" xmlns="http://www.w3.org/2000/svg">
<path d="M51.0952 7.56738H57.6851C59.1799 7.56738 60.4422 7.79525 61.4722 8.25098C62.5112 8.70671 63.2996 9.38118 63.8374 10.2744C64.3843 11.1585 64.6577 12.2477 64.6577 13.542C64.6577 14.4535 64.4709 15.2874 64.0972 16.0439C63.7326 16.7913 63.2039 17.4294 62.5112 17.958C61.8276 18.4775 61.0073 18.8649 60.0503 19.1201L59.312 19.4072H53.1187L53.0913 17.2607H57.7671C58.715 17.2607 59.5034 17.0967 60.1323 16.7686C60.7612 16.4313 61.2352 15.9801 61.5542 15.415C61.8732 14.8499 62.0327 14.2256 62.0327 13.542C62.0327 12.7764 61.8823 12.1064 61.5815 11.5322C61.2808 10.958 60.8068 10.516 60.1597 10.2061C59.5216 9.88704 58.6968 9.72754 57.6851 9.72754H53.7339V27.4736H51.0952V7.56738ZM62.73 27.4736L57.8901 18.4502L60.6382 18.4365L65.5464 27.3096V27.4736H62.73ZM74.105 27.7471C73.075 27.7471 72.1408 27.5739 71.3022 27.2275C70.4728 26.8721 69.7573 26.3753 69.1558 25.7373C68.5633 25.0993 68.1076 24.3428 67.7886 23.4678C67.4696 22.5928 67.3101 21.6357 67.3101 20.5967V20.0225C67.3101 18.8193 67.4878 17.7484 67.8433 16.8096C68.1987 15.8617 68.6818 15.0596 69.2925 14.4033C69.9032 13.7471 70.5959 13.2503 71.3706 12.9131C72.1453 12.5758 72.9474 12.4072 73.7769 12.4072C74.8341 12.4072 75.7456 12.5895 76.5112 12.9541C77.286 13.3187 77.9194 13.8291 78.4116 14.4854C78.9038 15.1325 79.2684 15.8981 79.5054 16.7822C79.7424 17.6572 79.8608 18.6143 79.8608 19.6533V20.7881H68.814V18.7236H77.3315V18.5322C77.2951 17.876 77.1584 17.238 76.9214 16.6182C76.6935 15.9984 76.3289 15.488 75.8276 15.0869C75.3263 14.6859 74.6427 14.4854 73.7769 14.4854C73.2026 14.4854 72.674 14.6084 72.1909 14.8545C71.7078 15.0915 71.2931 15.4469 70.9468 15.9209C70.6004 16.3949 70.3315 16.9736 70.1401 17.6572C69.9487 18.3408 69.853 19.1292 69.853 20.0225V20.5967C69.853 21.2985 69.9487 21.9593 70.1401 22.5791C70.3407 23.1898 70.6278 23.7275 71.0015 24.1924C71.3843 24.6572 71.8446 25.0218 72.3823 25.2861C72.9292 25.5505 73.549 25.6826 74.2417 25.6826C75.1349 25.6826 75.8914 25.5003 76.5112 25.1357C77.131 24.7712 77.6733 24.2835 78.1382 23.6729L79.6694 24.8896C79.3504 25.3727 78.9448 25.833 78.4526 26.2705C77.9604 26.708 77.3543 27.0635 76.6343 27.3369C75.9233 27.6104 75.0802 27.7471 74.105 27.7471ZM91.4272 23.5498C91.4272 23.1852 91.3452 22.848 91.1812 22.5381C91.0262 22.2191 90.7026 21.932 90.2104 21.6768C89.7274 21.4124 88.9982 21.1846 88.0229 20.9932C87.2026 20.82 86.4598 20.6149 85.7944 20.3779C85.1382 20.141 84.5776 19.8538 84.1128 19.5166C83.6571 19.1794 83.3062 18.7829 83.0601 18.3271C82.814 17.8714 82.6909 17.3382 82.6909 16.7275C82.6909 16.1442 82.8185 15.5928 83.0737 15.0732C83.3381 14.5537 83.7072 14.0934 84.1812 13.6924C84.6642 13.2913 85.243 12.9769 85.9175 12.749C86.592 12.5212 87.3439 12.4072 88.1733 12.4072C89.3582 12.4072 90.37 12.6169 91.2085 13.0361C92.047 13.4554 92.6896 14.016 93.1362 14.7178C93.5828 15.4105 93.8062 16.1807 93.8062 17.0283H91.2769C91.2769 16.6182 91.1538 16.2217 90.9077 15.8389C90.6707 15.4469 90.3198 15.1234 89.855 14.8682C89.3993 14.613 88.8387 14.4854 88.1733 14.4854C87.4715 14.4854 86.9019 14.5947 86.4644 14.8135C86.036 15.0231 85.7215 15.292 85.521 15.6201C85.3296 15.9482 85.2339 16.2946 85.2339 16.6592C85.2339 16.9326 85.2795 17.1787 85.3706 17.3975C85.4709 17.6071 85.644 17.8031 85.8901 17.9854C86.1362 18.1585 86.4826 18.3226 86.9292 18.4775C87.3758 18.6325 87.9455 18.7874 88.6382 18.9424C89.8504 19.2158 90.8485 19.5439 91.6323 19.9268C92.4162 20.3096 92.9995 20.779 93.3823 21.335C93.7651 21.891 93.9565 22.5654 93.9565 23.3584C93.9565 24.0055 93.8198 24.598 93.5464 25.1357C93.2821 25.6735 92.8947 26.1383 92.3843 26.5303C91.883 26.9131 91.2814 27.2139 90.5796 27.4326C89.8869 27.6423 89.1076 27.7471 88.2417 27.7471C86.9383 27.7471 85.8354 27.5146 84.9331 27.0498C84.0308 26.585 83.3472 25.9834 82.8823 25.2451C82.4175 24.5068 82.1851 23.7275 82.1851 22.9072H84.728C84.7645 23.5999 84.965 24.1514 85.3296 24.5615C85.6942 24.9626 86.1408 25.2497 86.6694 25.4229C87.1981 25.5869 87.7222 25.6689 88.2417 25.6689C88.9344 25.6689 89.5132 25.5778 89.978 25.3955C90.452 25.2132 90.812 24.9626 91.0581 24.6436C91.3042 24.3245 91.4272 23.96 91.4272 23.5498ZM103.472 12.6807V14.6221H95.4741V12.6807H103.472ZM98.1812 9.08496H100.71V23.8096C100.71 24.3109 100.788 24.6891 100.943 24.9443C101.098 25.1995 101.298 25.3682 101.544 25.4502C101.791 25.5322 102.055 25.5732 102.337 25.5732C102.547 25.5732 102.766 25.555 102.994 25.5186C103.231 25.473 103.408 25.4365 103.527 25.4092L103.541 27.4736C103.34 27.5374 103.076 27.5967 102.748 27.6514C102.429 27.7152 102.041 27.7471 101.585 27.7471C100.966 27.7471 100.396 27.624 99.8765 27.3779C99.3569 27.1318 98.9422 26.7217 98.6323 26.1475C98.3315 25.5641 98.1812 24.7803 98.1812 23.7959V9.08496ZM115.162 24.9443V17.3291C115.162 16.7458 115.043 16.2399 114.806 15.8115C114.578 15.374 114.232 15.0368 113.767 14.7998C113.302 14.5628 112.728 14.4443 112.044 14.4443C111.406 14.4443 110.846 14.5537 110.363 14.7725C109.889 14.9912 109.515 15.2783 109.242 15.6338C108.977 15.9893 108.845 16.3721 108.845 16.7822H106.316C106.316 16.2536 106.453 15.7295 106.726 15.21C107 14.6904 107.391 14.221 107.902 13.8018C108.421 13.3734 109.041 13.0361 109.761 12.79C110.49 12.5348 111.302 12.4072 112.195 12.4072C113.27 12.4072 114.218 12.5895 115.039 12.9541C115.868 13.3187 116.515 13.8701 116.98 14.6084C117.454 15.3376 117.691 16.2536 117.691 17.3564V24.2471C117.691 24.7393 117.732 25.2633 117.814 25.8193C117.905 26.3753 118.037 26.8538 118.21 27.2549V27.4736H115.572C115.444 27.182 115.344 26.7946 115.271 26.3115C115.198 25.8193 115.162 25.3636 115.162 24.9443ZM115.599 18.5049L115.626 20.2822H113.07C112.35 20.2822 111.707 20.3415 111.142 20.46C110.577 20.5693 110.103 20.738 109.72 20.9658C109.337 21.1937 109.046 21.4808 108.845 21.8271C108.645 22.1644 108.544 22.5609 108.544 23.0166C108.544 23.4814 108.649 23.9053 108.859 24.2881C109.069 24.6709 109.383 24.9762 109.802 25.2041C110.231 25.4229 110.755 25.5322 111.375 25.5322C112.149 25.5322 112.833 25.3682 113.425 25.04C114.018 24.7119 114.487 24.3109 114.833 23.8369C115.189 23.363 115.38 22.9027 115.408 22.4561L116.488 23.6729C116.424 24.0557 116.251 24.4795 115.968 24.9443C115.686 25.4092 115.307 25.8558 114.833 26.2842C114.369 26.7035 113.813 27.0544 113.166 27.3369C112.528 27.6104 111.807 27.7471 111.005 27.7471C110.003 27.7471 109.123 27.5511 108.367 27.1592C107.619 26.7673 107.036 26.2432 106.617 25.5869C106.207 24.9215 106.001 24.1787 106.001 23.3584C106.001 22.5654 106.156 21.8682 106.466 21.2666C106.776 20.6559 107.223 20.1501 107.806 19.749C108.389 19.3389 109.091 19.029 109.912 18.8193C110.732 18.6097 111.648 18.5049 112.66 18.5049H115.599ZM130.72 24.0557V12.6807H133.263V27.4736H130.843L130.72 24.0557ZM131.199 20.9385L132.251 20.9111C132.251 21.8955 132.147 22.807 131.937 23.6455C131.736 24.4749 131.408 25.195 130.953 25.8057C130.497 26.4163 129.9 26.8949 129.162 27.2412C128.423 27.5785 127.526 27.7471 126.468 27.7471C125.748 27.7471 125.087 27.6423 124.486 27.4326C123.893 27.223 123.383 26.8994 122.955 26.4619C122.526 26.0244 122.194 25.4548 121.957 24.7529C121.729 24.0511 121.615 23.208 121.615 22.2236V12.6807H124.144V22.251C124.144 22.9163 124.217 23.4678 124.363 23.9053C124.518 24.3337 124.723 24.6755 124.978 24.9307C125.242 25.1768 125.534 25.3499 125.853 25.4502C126.181 25.5505 126.518 25.6006 126.865 25.6006C127.94 25.6006 128.792 25.3955 129.421 24.9854C130.05 24.5661 130.501 24.0055 130.775 23.3037C131.057 22.5928 131.199 21.8044 131.199 20.9385ZM139.648 15.0049V27.4736H137.119V12.6807H139.58L139.648 15.0049ZM144.269 12.5986L144.255 14.9502C144.046 14.9046 143.845 14.8773 143.654 14.8682C143.472 14.8499 143.262 14.8408 143.025 14.8408C142.442 14.8408 141.927 14.932 141.48 15.1143C141.033 15.2965 140.655 15.5518 140.345 15.8799C140.035 16.208 139.789 16.5999 139.607 17.0557C139.434 17.5023 139.32 17.9945 139.265 18.5322L138.554 18.9424C138.554 18.0492 138.641 17.2106 138.814 16.4268C138.996 15.6429 139.274 14.9502 139.648 14.3486C140.022 13.738 140.496 13.264 141.07 12.9268C141.653 12.5804 142.346 12.4072 143.148 12.4072C143.33 12.4072 143.54 12.43 143.777 12.4756C144.014 12.512 144.178 12.5531 144.269 12.5986ZM154.783 24.9443V17.3291C154.783 16.7458 154.664 16.2399 154.427 15.8115C154.199 15.374 153.853 15.0368 153.388 14.7998C152.923 14.5628 152.349 14.4443 151.666 14.4443C151.028 14.4443 150.467 14.5537 149.984 14.7725C149.51 14.9912 149.136 15.2783 148.863 15.6338C148.598 15.9893 148.466 16.3721 148.466 16.7822H145.937C145.937 16.2536 146.074 15.7295 146.347 15.21C146.621 14.6904 147.013 14.221 147.523 13.8018C148.042 13.3734 148.662 13.0361 149.382 12.79C150.111 12.5348 150.923 12.4072 151.816 12.4072C152.891 12.4072 153.839 12.5895 154.66 12.9541C155.489 13.3187 156.136 13.8701 156.601 14.6084C157.075 15.3376 157.312 16.2536 157.312 17.3564V24.2471C157.312 24.7393 157.353 25.2633 157.435 25.8193C157.526 26.3753 157.658 26.8538 157.832 27.2549V27.4736H155.193C155.065 27.182 154.965 26.7946 154.892 26.3115C154.819 25.8193 154.783 25.3636 154.783 24.9443ZM155.22 18.5049L155.248 20.2822H152.691C151.971 20.2822 151.328 20.3415 150.763 20.46C150.198 20.5693 149.724 20.738 149.341 20.9658C148.958 21.1937 148.667 21.4808 148.466 21.8271C148.266 22.1644 148.166 22.5609 148.166 23.0166C148.166 23.4814 148.27 23.9053 148.48 24.2881C148.69 24.6709 149.004 24.9762 149.423 25.2041C149.852 25.4229 150.376 25.5322 150.996 25.5322C151.77 25.5322 152.454 25.3682 153.046 25.04C153.639 24.7119 154.108 24.3109 154.455 23.8369C154.81 23.363 155.001 22.9027 155.029 22.4561L156.109 23.6729C156.045 24.0557 155.872 24.4795 155.589 24.9443C155.307 25.4092 154.929 25.8558 154.455 26.2842C153.99 26.7035 153.434 27.0544 152.787 27.3369C152.149 27.6104 151.429 27.7471 150.626 27.7471C149.624 27.7471 148.744 27.5511 147.988 27.1592C147.24 26.7673 146.657 26.2432 146.238 25.5869C145.828 24.9215 145.623 24.1787 145.623 23.3584C145.623 22.5654 145.778 21.8682 146.087 21.2666C146.397 20.6559 146.844 20.1501 147.427 19.749C148.011 19.3389 148.712 19.029 149.533 18.8193C150.353 18.6097 151.269 18.5049 152.281 18.5049H155.22ZM163.82 15.8389V27.4736H161.291V12.6807H163.683L163.82 15.8389ZM163.218 19.5166L162.166 19.4756C162.175 18.4639 162.325 17.5296 162.617 16.6729C162.908 15.807 163.319 15.055 163.847 14.417C164.376 13.779 165.005 13.2868 165.734 12.9404C166.472 12.585 167.288 12.4072 168.181 12.4072C168.91 12.4072 169.567 12.5075 170.15 12.708C170.733 12.8994 171.23 13.2093 171.64 13.6377C172.059 14.0661 172.378 14.6221 172.597 15.3057C172.816 15.9801 172.925 16.805 172.925 17.7803V27.4736H170.382V17.7529C170.382 16.9782 170.268 16.3584 170.041 15.8936C169.813 15.4196 169.48 15.0778 169.042 14.8682C168.605 14.6494 168.067 14.54 167.429 14.54C166.8 14.54 166.226 14.6722 165.707 14.9365C165.196 15.2008 164.754 15.5654 164.38 16.0303C164.016 16.4951 163.729 17.0283 163.519 17.6299C163.319 18.2223 163.218 18.8512 163.218 19.5166ZM182.96 12.6807V14.6221H174.962V12.6807H182.96ZM177.669 9.08496H180.199V23.8096C180.199 24.3109 180.276 24.6891 180.431 24.9443C180.586 25.1995 180.787 25.3682 181.033 25.4502C181.279 25.5322 181.543 25.5732 181.826 25.5732C182.035 25.5732 182.254 25.555 182.482 25.5186C182.719 25.473 182.897 25.4365 183.015 25.4092L183.029 27.4736C182.828 27.5374 182.564 27.5967 182.236 27.6514C181.917 27.7152 181.529 27.7471 181.074 27.7471C180.454 27.7471 179.884 27.624 179.365 27.3779C178.845 27.1318 178.431 26.7217 178.121 26.1475C177.82 25.5641 177.669 24.7803 177.669 23.7959V9.08496ZM184.984 20.2412V19.9268C184.984 18.8604 185.139 17.8714 185.449 16.96C185.759 16.0394 186.205 15.2419 186.789 14.5674C187.372 13.8838 188.078 13.3551 188.908 12.9814C189.737 12.5986 190.667 12.4072 191.697 12.4072C192.736 12.4072 193.67 12.5986 194.5 12.9814C195.338 13.3551 196.049 13.8838 196.632 14.5674C197.225 15.2419 197.676 16.0394 197.986 16.96C198.296 17.8714 198.451 18.8604 198.451 19.9268V20.2412C198.451 21.3076 198.296 22.2965 197.986 23.208C197.676 24.1195 197.225 24.917 196.632 25.6006C196.049 26.2751 195.343 26.8037 194.513 27.1865C193.693 27.5602 192.763 27.7471 191.724 27.7471C190.685 27.7471 189.751 27.5602 188.921 27.1865C188.092 26.8037 187.381 26.2751 186.789 25.6006C186.205 24.917 185.759 24.1195 185.449 23.208C185.139 22.2965 184.984 21.3076 184.984 20.2412ZM187.513 19.9268V20.2412C187.513 20.9795 187.6 21.6768 187.773 22.333C187.946 22.9801 188.206 23.5544 188.552 24.0557C188.908 24.557 189.35 24.9535 189.878 25.2451C190.407 25.5277 191.022 25.6689 191.724 25.6689C192.417 25.6689 193.023 25.5277 193.542 25.2451C194.071 24.9535 194.509 24.557 194.855 24.0557C195.201 23.5544 195.461 22.9801 195.634 22.333C195.817 21.6768 195.908 20.9795 195.908 20.2412V19.9268C195.908 19.1976 195.817 18.5094 195.634 17.8623C195.461 17.2061 195.197 16.6273 194.841 16.126C194.495 15.6156 194.057 15.2145 193.529 14.9229C193.009 14.6312 192.399 14.4854 191.697 14.4854C191.004 14.4854 190.393 14.6312 189.865 14.9229C189.345 15.2145 188.908 15.6156 188.552 16.126C188.206 16.6273 187.946 17.2061 187.773 17.8623C187.6 18.5094 187.513 19.1976 187.513 19.9268Z" fill="black"/>
<path d="M18.0286 28.8048H21.294V24.9642H18.0286V28.8048ZM31.09 5.76099H8.23262C6.43669 5.76099 4.96729 7.48928 4.96729 9.60163V36.4861C4.96729 38.5985 6.43669 40.3268 8.23262 40.3268H31.09C32.8859 40.3268 34.3553 38.5985 34.3553 36.4861V9.60163C34.3553 7.48928 32.8859 5.76099 31.09 5.76099ZM22.9266 17.2829H18.0286V21.1236H21.294C23.0899 21.1236 24.5593 22.8519 24.5593 24.9642V28.8048C24.5593 30.9364 23.0899 32.6455 21.294 32.6455H18.0286C16.2327 32.6455 14.7633 30.9364 14.7633 28.8048V17.2829C14.7633 15.1706 16.2327 13.4423 18.0286 13.4423H22.9266C23.8246 13.4423 24.5593 14.3064 24.5593 15.3626C24.5593 16.4188 23.8246 17.2829 22.9266 17.2829Z" fill="#323232"/>
</svg>
